<?xml version="1.0" standalone="no"?>
<!DOCTYPE svg PUBLIC "-//W3C//DTD SVG 20010904//EN"
 "http://www.w3.org/TR/2001/REC-SVG-20010904/DTD/svg10.dtd">
<svg version="1.0" xmlns="http://www.w3.org/2000/svg"
 width="160.000000pt" height="160.000000pt" viewBox="0 0 160.000000 160.000000"
 preserveAspectRatio="xMidYMid meet">

<g transform="translate(0.000000,160.000000) scale(0.100000,-0.100000)"
fill="#000000" stroke="none">
<path d="M635 1584 c-386 -85 -653 -433 -632 -824 7 -125 25 -197 77 -306 100
-208 294 -368 520 -431 91 -24 309 -24 400 0 278 77 500 299 577 577 24 91 24
309 0 400 -76 275 -300 501 -572 575 -87 24 -282 29 -370 9z m345 -493 l0 -80
-47 -3 -48 -3 -3 -47 -3 -48 50 0 c56 0 59 -6 45 -79 -6 -29 -9 -31 -50 -31
l-44 0 -2 -182 -3 -183 -77 -3 -78 -3 0 186 0 185 -56 0 -55 0 3 53 3 52 53 3
52 3 0 89 c0 81 2 91 26 119 32 38 68 49 162 50 l72 1 0 -79z"/>
</g>
</svg>
