<?xml version="1.0" standalone="no"?>
<!DOCTYPE svg PUBLIC "-//W3C//DTD SVG 20010904//EN"
 "http://www.w3.org/TR/2001/REC-SVG-20010904/DTD/svg10.dtd">
<svg version="1.0" xmlns="http://www.w3.org/2000/svg"
 width="160.000000pt" height="160.000000pt" viewBox="0 0 160.000000 160.000000"
 preserveAspectRatio="xMidYMid meet">

<g transform="translate(0.000000,160.000000) scale(0.100000,-0.100000)"
fill="#000000" stroke="none">
<path d="M635 1584 c-386 -85 -653 -433 -632 -824 7 -125 25 -197 77 -306 100
-208 294 -368 520 -431 91 -24 309 -24 400 0 278 77 500 299 577 577 24 91 24
309 0 400 -76 275 -300 501 -572 575 -87 24 -282 29 -370 9z m364 -425 c70
-15 112 -46 141 -104 23 -46 25 -62 28 -221 6 -252 -15 -321 -108 -374 -42
-24 -55 -25 -221 -28 -262 -6 -330 15 -379 113 -23 46 -25 62 -28 221 -4 187
6 263 41 315 26 39 75 70 126 80 58 11 346 10 400 -2z"/>
<path d="M593 1089 c-39 -11 -80 -59 -88 -103 -4 -18 -5 -114 -3 -214 3 -164
5 -183 24 -209 43 -59 69 -64 286 -61 220 3 234 8 270 79 26 51 26 387 0 438
-36 71 -51 76 -265 78 -106 1 -206 -2 -224 -8z m435 -61 c19 -19 14 -56 -8
-68 -26 -14 -57 -4 -65 20 -14 44 41 80 73 48z m-160 -53 c71 -30 121 -102
122 -175 0 -48 -37 -117 -82 -153 -89 -71 -230 -32 -279 78 -36 77 -13 167 55
221 57 46 119 56 184 29z"/>
<path d="M738 904 c-52 -27 -74 -109 -44 -162 44 -80 170 -81 211 -2 57 110
-58 223 -167 164z"/>
</g>
</svg>
