<?xml version="1.0" standalone="no"?>
<!DOCTYPE svg PUBLIC "-//W3C//DTD SVG 20010904//EN"
 "http://www.w3.org/TR/2001/REC-SVG-20010904/DTD/svg10.dtd">
<svg version="1.0" xmlns="http://www.w3.org/2000/svg"
 width="160.000000pt" height="160.000000pt" viewBox="0 0 160.000000 160.000000"
 preserveAspectRatio="xMidYMid meet">

<g transform="translate(0.000000,160.000000) scale(0.100000,-0.100000)"
fill="#000000" stroke="none">
<path d="M635 1584 c-386 -85 -653 -433 -632 -824 7 -125 25 -197 77 -306 100
-208 294 -368 520 -431 91 -24 309 -24 400 0 278 77 500 299 577 577 24 91 24
309 0 400 -76 275 -300 501 -572 575 -87 24 -282 29 -370 9z m477 -546 c42
-28 53 -76 53 -243 0 -166 -12 -209 -62 -236 -35 -19 -577 -21 -609 -2 -46 26
-59 77 -59 228 0 77 3 156 8 176 8 41 47 85 80 92 12 3 144 4 292 3 237 -1
274 -3 297 -18z"/>
<path d="M700 800 l0 -119 118 56 c64 30 119 57 121 59 7 7 -1 12 -122 68
l-117 55 0 -119z"/>
</g>
</svg>
