<?xml version="1.0" standalone="no"?>
<!DOCTYPE svg PUBLIC "-//W3C//DTD SVG 20010904//EN"
 "http://www.w3.org/TR/2001/REC-SVG-20010904/DTD/svg10.dtd">
<svg version="1.0" xmlns="http://www.w3.org/2000/svg"
 width="160.000000pt" height="160.000000pt" viewBox="0 0 160.000000 160.000000"
 preserveAspectRatio="xMidYMid meet">

<g transform="translate(0.000000,160.000000) scale(0.100000,-0.100000)"
fill="#000000" stroke="none">
<path d="M635 1584 c-386 -85 -653 -433 -632 -824 7 -125 25 -197 77 -306 100
-208 294 -368 520 -431 91 -24 309 -24 400 0 278 77 500 299 577 577 24 91 24
309 0 400 -76 275 -300 501 -572 575 -87 24 -282 29 -370 9z m93 -507 c45 -67
91 -132 101 -145 l17 -24 125 146 c113 134 127 146 157 146 19 0 31 -4 27 -10
-3 -5 -66 -80 -141 -167 -74 -86 -132 -163 -130 -170 3 -7 70 -106 149 -221
79 -115 147 -214 151 -221 5 -8 -25 -11 -111 -11 l-118 1 -105 155 c-98 145
-105 153 -121 137 -9 -10 -69 -80 -133 -156 -111 -129 -120 -137 -154 -137
l-36 0 25 28 c45 48 265 307 273 319 6 11 -89 158 -276 426 l-19 27 118 0 118
0 83 -123z"/>
<path d="M510 1144 c0 -3 108 -160 241 -350 l241 -344 50 0 c27 0 48 4 46 9
-1 4 -110 162 -242 350 l-239 341 -48 0 c-27 0 -49 -3 -49 -6z"/>
</g>
</svg>
