<svg xmlns="http://www.w3.org/2000/svg" width="1000" height="1000" id="empty" style=""><g id="horizontal" transform="matrix(1,0,0,1,0,0)"><g id="icon" transform="matrix(0.5652208411385833,0,0,0.5652208925327667,24.752425455399006,-18.240340584410596)"><path fill="#f1eded" d="M637.1360319862767 2131.5283259110156C609.8640319862768 2131.5283259110156 587.6760319862767 2153.7163259110157 587.6760319862767 2180.9883259110156C587.6760319862767 2184.3023259110155 590.3630319862767 2186.9893259110154 593.6760319862767 2186.9893259110154C596.9890319862768 2186.9893259110154 599.6760319862767 2184.3023259110155 599.6760319862767 2180.9883259110156C599.6760319862767 2160.3333259110154 616.4800319862768 2143.5283259110156 637.1350319862768 2143.5283259110156C640.4490319862767 2143.5283259110156 643.1350319862768 2140.8423259110155 643.1350319862768 2137.5283259110156C643.1350319862768 2134.2143259110153 640.4500319862767 2131.5283259110156 637.1360319862767 2131.5283259110156Z " transform="matrix(0.4253263293798884,0,0,0.42532629504864233,32.716746601772385,24.35582094571079)"></path><path fill="#f1eded" d="M637.1360319862767 1901.1733259110156L444.06803198627676 2040.5123259110155L444.06803198627676 2295.7233259110158L830.2070319862768 2295.7233259110158L830.2070319862768 2040.5123259110155L637.1360319862767 1901.1733259110156ZM637.1360319862767 2248.471325911016C599.9280319862768 2248.471325911016 569.6570319862768 2218.1993259110154 569.6570319862768 2180.9893259110154C569.6570319862768 2143.7803259110156 599.9280319862768 2113.5083259110156 637.1360319862767 2113.5083259110156C674.3450319862768 2113.5083259110156 704.6170319862767 2143.7803259110156 704.6170319862767 2180.9893259110154C704.6170319862767 2218.1983259110157 674.3450319862768 2248.471325911016 637.1360319862767 2248.471325911016ZM772.4350319862767 2218.4433259110156C772.4350319862767 2235.7413259110153 758.3630319862768 2249.8133259110155 741.0660319862768 2249.8133259110155L686.0370319862768 2249.8133259110155C707.5480319862768 2234.4843259110157 721.6170319862767 2209.3563259110156 721.6170319862767 2180.9883259110156C721.6170319862767 2134.4053259110156 683.7190319862768 2096.5073259110154 637.1360319862767 2096.5073259110154C590.5540319862768 2096.5073259110154 552.6570319862768 2134.4053259110156 552.6570319862768 2180.9883259110156C552.6570319862768 2209.3563259110156 566.7260319862768 2234.4843259110157 588.2370319862767 2249.8133259110155L533.2070319862768 2249.8133259110155C515.9100319862767 2249.8133259110155 501.83803198627675 2235.7413259110153 501.83803198627675 2218.4433259110156L501.83803198627675 2105.3523259110157C501.83803198627675 2088.0533259110157 515.9100319862767 2073.9813259110156 533.2070319862768 2073.9813259110156L594.0470319862768 2073.9813259110156L603.8580319862767 2052.9073259110155C605.9770319862768 2048.357325911016 611.1570319862768 2045.0543259110157 616.1760319862767 2045.0543259110157L673.8190319862767 2045.0543259110157C678.8350319862768 2045.0543259110157 684.0160319862769 2048.3563259110156 686.1350319862768 2052.9053259110156L695.9480319862768 2073.9813259110156L741.0670319862768 2073.9813259110156C758.3640319862768 2073.9813259110156 772.4360319862767 2088.0533259110157 772.4360319862767 2105.3523259110157L772.4360319862767 2218.4433259110156Z " transform="matrix(0.4253263293798884,0,0,0.42532629504864233,32.716746601772385,24.35582094571079)"></path><g transform="matrix(0.8506526587597768,0,0,0.8506525900972847,32.716746601772385,24.35582094571079)"></g></g><g id="logo" transform="matrix(0.5652208411385833,0,0,0.5652208925327667,167.8472440115172,-18.240340584410596)"><g id="brand" fill="#f1eded" transform="matrix(1,0,0,1,0,0)"><g transform="matrix(1,0,0,1,1.3969838411065363e-7,-0.000001229345780173752)"><path id="text" transform="matrix(1 0 0 1 -9.375 82.5)" d="M211.7220431125079 839.6779522626179L211.7220431125079 851.3967022626179L187.0657931125079 851.3967022626179L187.0657931125079 874.9279522626179L174.0345431125079 874.9279522626179L174.0345431125079 812.1154522626179L216.8782931125079 812.1154522626179L216.8782931125079 823.8342022626179L187.0657931125079 823.8342022626179L187.0657931125079 839.6779522626179L211.7220431125079 839.6779522626179ZM261.3157931125079 810.7092022626179C265.8157931125079 810.7092022626179 270.0345431125079 811.5060772626179 273.9720431125079 813.0998272626179C277.9095431125079 814.6935772626179 281.3939181125079 816.9435772626179 284.4251681125079 819.8498272626179C287.4564181125079 822.7560772626179 289.8314181125079 826.2092022626179 291.5501681125079 830.2092022626179C293.2689181125079 834.2092022626179 294.1282931125079 838.6467022626179 294.1282931125079 843.5217022626179C294.1282931125079 848.3967022626179 293.2689181125079 852.8342022626179 291.5501681125079 856.8342022626179C289.8314181125079 860.8342022626179 287.4564181125079 864.2873272626179 284.4251681125079 867.1935772626179C281.3939181125079 870.0998272626179 277.9095431125079 872.3498272626179 273.9720431125079 873.9435772626179C270.0345431125079 875.5373272626179 265.8157931125079 876.3342022626179 261.3157931125079 876.3342022626179C256.8157931125079 876.3342022626179 252.5814181125079 875.5373272626179 248.6126681125079 873.9435772626179C244.6439181125079 872.3498272626179 241.1439181125079 870.0998272626179 238.1126681125079 867.1935772626179C235.0814181125079 864.2873272626179 232.7064181125079 860.8342022626179 230.9876681125079 856.8342022626179C229.2689181125079 852.8342022626179 228.4095431125079 848.3967022626179 228.4095431125079 843.5217022626179C228.4095431125079 838.6467022626179 229.2689181125079 834.2092022626179 230.9876681125079 830.2092022626179C232.7064181125079 826.2092022626179 235.0814181125079 822.7560772626179 238.1126681125079 819.8498272626179C241.1439181125079 816.9435772626179 244.6439181125079 814.6935772626179 248.6126681125079 813.0998272626179C252.5814181125079 811.5060772626179 256.8157931125079 810.7092022626179 261.3157931125079 810.7092022626179ZM261.3157931125079 822.9904522626179C257.5657931125079 822.9904522626179 254.2064181125079 823.8967022626179 251.2376681125079 825.7092022626179C248.2689181125079 827.5217022626179 245.9407931125079 829.9592022626179 244.2532931125079 833.0217022626179C242.5657931125079 836.0842022626179 241.7220431125079 839.5842022626179 241.7220431125079 843.5217022626179C241.7220431125079 847.3967022626179 242.5657931125079 850.8810772626179 244.2532931125079 853.9748272626179C245.9407931125079 857.0685772626179 248.2689181125079 859.5060772626179 251.2376681125079 861.2873272626179C254.2064181125079 863.0685772626179 257.5657931125079 863.9592022626179 261.3157931125079 863.9592022626179C265.0657931125079 863.9592022626179 268.4095431125079 863.0685772626179 271.3470431125079 861.2873272626179C274.2845431125079 859.5060772626179 276.5970431125079 857.0685772626179 278.2845431125079 853.9748272626179C279.9720431125079 850.8810772626179 280.8157931125079 847.3967022626179 280.8157931125079 843.5217022626179C280.8157931125079 839.5842022626179 279.9720431125079 836.0842022626179 278.2845431125079 833.0217022626179C276.5970431125079 829.9592022626179 274.2845431125079 827.5217022626179 271.3470431125079 825.7092022626179C268.4095431125079 823.8967022626179 265.0657931125079 822.9904522626179 261.3157931125079 822.9904522626179ZM352.1595431125079 812.1154522626179L352.1595431125079 823.8342022626179L332.0970431125079 823.8342022626179L332.0970431125079 874.6467022626179L319.1595431125079 874.6467022626179L319.1595431125079 823.8342022626179L299.0970431125079 823.8342022626179L299.0970431125079 812.1154522626179L352.1595431125079 812.1154522626179ZM390.8782931125079 810.7092022626179C395.3782931125079 810.7092022626179 399.5970431125079 811.5060772626179 403.5345431125079 813.0998272626179C407.4720431125079 814.6935772626179 410.9564181125079 816.9435772626179 413.9876681125079 819.8498272626179C417.0189181125079 822.7560772626179 419.3939181125079 826.2092022626179 421.1126681125079 830.2092022626179C422.8314181125079 834.2092022626179 423.6907931125079 838.6467022626179 423.6907931125079 843.5217022626179C423.6907931125079 848.3967022626179 422.8314181125079 852.8342022626179 421.1126681125079 856.8342022626179C419.3939181125079 860.8342022626179 417.0189181125079 864.2873272626179 413.9876681125079 867.1935772626179C410.9564181125079 870.0998272626179 407.4720431125079 872.3498272626179 403.5345431125079 873.9435772626179C399.5970431125079 875.5373272626179 395.3782931125079 876.3342022626179 390.8782931125079 876.3342022626179C386.3782931125079 876.3342022626179 382.1439181125079 875.5373272626179 378.1751681125079 873.9435772626179C374.2064181125079 872.3498272626179 370.7064181125079 870.0998272626179 367.6751681125079 867.1935772626179C364.6439181125079 864.2873272626179 362.2689181125079 860.8342022626179 360.5501681125079 856.8342022626179C358.8314181125079 852.8342022626179 357.9720431125079 848.3967022626179 357.9720431125079 843.5217022626179C357.9720431125079 838.6467022626179 358.8314181125079 834.2092022626179 360.5501681125079 830.2092022626179C362.2689181125079 826.2092022626179 364.6439181125079 822.7560772626179 367.6751681125079 819.8498272626179C370.7064181125079 816.9435772626179 374.2064181125079 814.6935772626179 378.1751681125079 813.0998272626179C382.1439181125079 811.5060772626179 386.3782931125079 810.7092022626179 390.8782931125079 810.7092022626179ZM390.8782931125079 822.9904522626179C387.1282931125079 822.9904522626179 383.7689181125079 823.8967022626179 380.8001681125079 825.7092022626179C377.8314181125079 827.5217022626179 375.5032931125079 829.9592022626179 373.8157931125079 833.0217022626179C372.1282931125079 836.0842022626179 371.2845431125079 839.5842022626179 371.2845431125079 843.5217022626179C371.2845431125079 847.3967022626179 372.1282931125079 850.8810772626179 373.8157931125079 853.9748272626179C375.5032931125079 857.0685772626179 377.8314181125079 859.5060772626179 380.8001681125079 861.2873272626179C383.7689181125079 863.0685772626179 387.1282931125079 863.9592022626179 390.8782931125079 863.9592022626179C394.6282931125079 863.9592022626179 397.9720431125079 863.0685772626179 400.9095431125079 861.2873272626179C403.8470431125079 859.5060772626179 406.1595431125079 857.0685772626179 407.8470431125079 853.9748272626179C409.5345431125079 850.8810772626179 410.3782931125079 847.3967022626179 410.3782931125079 843.5217022626179C410.3782931125079 839.5842022626179 409.5345431125079 836.0842022626179 407.8470431125079 833.0217022626179C406.1595431125079 829.9592022626179 403.8470431125079 827.5217022626179 400.9095431125079 825.7092022626179C397.9720431125079 823.8967022626179 394.6282931125079 822.9904522626179 390.8782931125079 822.9904522626179ZM467.5657931125079 840.8967022626179L488.9407931125079 840.8967022626179L488.9407931125079 866.4904522626179C486.3157931125079 869.2404522626179 482.9876681125079 871.5685772626179 478.9564181125079 873.4748272626179C474.9251681125079 875.3810772626179 470.3782931125079 876.3342022626179 465.3157931125079 876.3342022626179C460.8157931125079 876.3342022626179 456.5657931125079 875.5373272626179 452.5657931125079 873.9435772626179C448.5657931125079 872.3498272626179 445.0345431125079 870.0998272626179 441.9720431125079 867.1935772626179C438.9095431125079 864.2873272626179 436.5032931125079 860.8342022626179 434.7532931125079 856.8342022626179C433.0032931125079 852.8342022626179 432.1282931125079 848.3967022626179 432.1282931125079 843.5217022626179C432.1282931125079 838.6467022626179 433.0032931125079 834.2092022626179 434.7532931125079 830.2092022626179C436.5032931125079 826.2092022626179 438.9095431125079 822.7560772626179 441.9720431125079 819.8498272626179C445.0345431125079 816.9435772626179 448.5657931125079 814.6935772626179 452.5657931125079 813.0998272626179C456.5657931125079 811.5060772626179 460.8157931125079 810.7092022626179 465.3157931125079 810.7092022626179C469.2532931125079 810.7092022626179 472.6595431125079 811.2560772626179 475.5345431125079 812.3498272626179C478.4095431125079 813.4435772626179 480.9095431125079 814.9279522626179 483.0345431125079 816.8029522626179L483.0345431125079 829.9279522626179C481.5345431125079 828.8029522626179 479.9720431125079 827.7092022626179 478.3470431125079 826.6467022626179C476.7220431125079 825.5842022626179 474.8939181125079 824.7092022626179 472.8626681125079 824.0217022626179C470.8314181125079 823.3342022626179 468.4407931125079 822.9904522626179 465.6907931125079 822.9904522626179C461.9407931125079 822.9904522626179 458.5345431125079 823.8967022626179 455.4720431125079 825.7092022626179C452.4095431125079 827.5217022626179 449.9720431125079 829.9592022626179 448.1595431125079 833.0217022626179C446.3470431125079 836.0842022626179 445.4407931125079 839.5842022626179 445.4407931125079 843.5217022626179C445.4407931125079 847.3967022626179 446.3470431125079 850.8810772626179 448.1595431125079 853.9748272626179C449.9720431125079 857.0685772626179 452.4095431125079 859.5060772626179 455.4720431125079 861.2873272626179C458.5345431125079 863.0685772626179 461.9407931125079 863.9592022626179 465.6907931125079 863.9592022626179C468.5657931125079 863.9592022626179 470.8782931125079 863.6154522626179 472.6282931125079 862.9279522626179C474.3782931125079 862.2404522626179 475.7532931125079 861.4904522626179 476.7532931125079 860.6779522626179L476.8470431125079 850.2717022626179L467.5657931125079 850.2717022626179L467.5657931125079 840.8967022626179ZM528.6907931125079 812.1154522626179C531.6282931125079 812.1154522626179 534.5032931125079 812.5217022626179 537.3157931125079 813.3342022626179C540.1282931125079 814.1467022626179 542.6751681125079 815.3967022626179 544.9564181125079 817.0842022626179C547.2376681125079 818.7717022626179 549.0501681125079 820.8810772626179 550.3939181125079 823.4123272626179C551.7376681125079 825.9435772626179 552.4095431125079 828.9592022626179 552.4095431125079 832.4592022626179C552.4095431125079 836.1467022626179 551.4876681125079 839.3185772626179 549.6439181125079 841.9748272626179C547.8001681125079 844.6310772626179 545.3782931125079 846.6935772626179 542.3782931125079 848.1623272626179C539.3782931125079 849.6310772626179 536.1282931125079 850.4904522626179 532.6282931125079 850.7404522626179L555.2220431125079 874.9279522626179L538.0657931125079 874.9279522626179L516.2220431125079 849.2404522626179L516.2220431125079 874.9279522626179L503.1907931125079 874.9279522626179L503.1907931125079 812.1154522626179L528.6907931125079 812.1154522626179ZM516.2220431125079 824.3029522626179L516.2220431125079 840.1467022626179C517.7220431125079 840.6467022626179 519.3939181125079 841.0373272626179 521.2376681125079 841.3185772626179C523.0814181125079 841.5998272626179 524.9407931125079 841.7404522626179 526.8157931125079 841.7404522626179C530.5657931125079 841.7404522626179 533.5501681125079 840.9748272626179 535.7689181125079 839.4435772626179C537.9876681125079 837.9123272626179 539.0970431125079 835.7404522626179 539.0970431125079 832.9279522626179C539.0970431125079 829.8654522626179 537.9251681125079 827.6623272626179 535.5814181125079 826.3185772626179C533.2376681125079 824.9748272626179 530.3782931125079 824.3029522626179 527.0032931125079 824.3029522626179L516.2220431125079 824.3029522626179ZM593.0970431125079 811.6467022626179L622.3470431125079 874.9279522626179L607.0657931125079 874.9279522626179L602.2845431125079 863.2092022626179L577.4407931125079 863.2092022626179L572.6595431125079 874.9279522626179L557.3782931125079 874.9279522626179L586.6282931125079 811.6467022626179L593.0970431125079 811.6467022626179ZM589.9095431125079 832.9279522626179L582.0345431125079 852.1467022626179L597.7845431125079 852.1467022626179L589.9095431125079 832.9279522626179ZM670.3470431125079 839.6779522626179L670.3470431125079 851.3967022626179L645.6907931125079 851.3967022626179L645.6907931125079 874.9279522626179L632.6595431125079 874.9279522626179L632.6595431125079 812.1154522626179L675.5032931125079 812.1154522626179L675.5032931125079 823.8342022626179L645.6907931125079 823.8342022626179L645.6907931125079 839.6779522626179L670.3470431125079 839.6779522626179ZM725.9407931125079 863.2092022626179L725.9407931125079 874.9279522626179L691.7220431125079 874.9279522626179L691.7220431125079 863.2092022626179L702.3157931125079 863.2092022626179L702.3157931125079 823.8342022626179L691.7220431125079 823.8342022626179L691.7220431125079 812.1154522626179L725.9407931125079 812.1154522626179L725.9407931125079 823.8342022626179L715.3470431125079 823.8342022626179L715.3470431125079 863.2092022626179L725.9407931125079 863.2092022626179ZM725.0970431125079 792.4279522626179L712.2532931125079 805.7404522626179L702.6907931125079 805.7404522626179L712.5345431125079 792.4279522626179L725.0970431125079 792.4279522626179ZM771.5032931125079 811.6467022626179L800.7532931125079 874.9279522626179L785.4720431125079 874.9279522626179L780.6907931125079 863.2092022626179L755.8470431125079 863.2092022626179L751.0657931125079 874.9279522626179L735.7845431125079 874.9279522626179L765.0345431125079 811.6467022626179L771.5032931125079 811.6467022626179ZM768.3157931125079 832.9279522626179L760.4407931125079 852.1467022626179L776.1907931125079 852.1467022626179L768.3157931125079 832.9279522626179ZM866.4720431125079 811.6467022626179L895.7220431125079 874.9279522626179L880.4407931125079 874.9279522626179L875.6595431125079 863.2092022626179L850.8157931125079 863.2092022626179L846.0345431125079 874.9279522626179L830.7532931125079 874.9279522626179L860.0032931125079 811.6467022626179L866.4720431125079 811.6467022626179ZM863.2845431125079 832.9279522626179L855.4095431125079 852.1467022626179L871.1595431125079 852.1467022626179L863.2845431125079 832.9279522626179ZM996.4095431125079 811.6467022626179L996.4095431125079 874.9279522626179L983.3782931125079 874.9279522626179L983.3782931125079 836.6779522626179L967.2532931125079 854.3029522626179L963.5032931125079 854.3029522626179L947.1907931125079 836.6779522626179L947.1907931125079 874.9279522626179L934.1595431125079 874.9279522626179L934.1595431125079 811.6467022626179L938.5657931125079 811.6467022626179L965.3782931125079 839.5842022626179L992.0032931125079 811.6467022626179L996.4095431125079 811.6467022626179ZM1042.440793112508 811.6467022626179L1071.690793112508 874.9279522626179L1056.409543112508 874.9279522626179L1051.628293112508 863.2092022626179L1026.784543112508 863.2092022626179L1022.0032931125079 874.9279522626179L1006.7220431125079 874.9279522626179L1035.972043112508 811.6467022626179L1042.440793112508 811.6467022626179ZM1039.253293112508 832.9279522626179L1031.378293112508 852.1467022626179L1047.128293112508 852.1467022626179L1039.253293112508 832.9279522626179ZM1136.940793112508 812.1154522626179L1136.940793112508 875.3967022626179L1132.253293112508 875.3967022626179L1095.034543112508 837.0529522626179L1095.034543112508 874.9279522626179L1082.003293112508 874.9279522626179L1082.003293112508 811.6467022626179L1086.690793112508 811.6467022626179L1123.909543112508 850.5529522626179L1123.909543112508 812.1154522626179L1136.940793112508 812.1154522626179ZM1183.440793112508 810.7092022626179C1187.940793112508 810.7092022626179 1192.159543112508 811.5060772626179 1196.097043112508 813.0998272626179C1200.034543112508 814.6935772626179 1203.518918112508 816.9435772626179 1206.550168112508 819.8498272626179C1209.581418112508 822.7560772626179 1211.956418112508 826.2092022626179 1213.675168112508 830.2092022626179C1215.393918112508 834.2092022626179 1216.253293112508 838.6467022626179 1216.253293112508 843.5217022626179C1216.253293112508 848.3967022626179 1215.393918112508 852.8342022626179 1213.675168112508 856.8342022626179C1211.956418112508 860.8342022626179 1209.581418112508 864.2873272626179 1206.550168112508 867.1935772626179C1203.518918112508 870.0998272626179 1200.034543112508 872.3498272626179 1196.097043112508 873.9435772626179C1192.159543112508 875.5373272626179 1187.940793112508 876.3342022626179 1183.440793112508 876.3342022626179C1178.940793112508 876.3342022626179 1174.706418112508 875.5373272626179 1170.737668112508 873.9435772626179C1166.768918112508 872.3498272626179 1163.268918112508 870.0998272626179 1160.237668112508 867.1935772626179C1157.206418112508 864.2873272626179 1154.831418112508 860.8342022626179 1153.112668112508 856.8342022626179C1151.393918112508 852.8342022626179 1150.534543112508 848.3967022626179 1150.534543112508 843.5217022626179C1150.534543112508 838.6467022626179 1151.393918112508 834.2092022626179 1153.112668112508 830.2092022626179C1154.831418112508 826.2092022626179 1157.206418112508 822.7560772626179 1160.237668112508 819.8498272626179C1163.268918112508 816.9435772626179 1166.768918112508 814.6935772626179 1170.737668112508 813.0998272626179C1174.706418112508 811.5060772626179 1178.940793112508 810.7092022626179 1183.440793112508 810.7092022626179ZM1183.440793112508 822.9904522626179C1179.690793112508 822.9904522626179 1176.331418112508 823.8967022626179 1173.362668112508 825.7092022626179C1170.393918112508 827.5217022626179 1168.065793112508 829.9592022626179 1166.378293112508 833.0217022626179C1164.690793112508 836.0842022626179 1163.847043112508 839.5842022626179 1163.847043112508 843.5217022626179C1163.847043112508 847.3967022626179 1164.690793112508 850.8810772626179 1166.378293112508 853.9748272626179C1168.065793112508 857.0685772626179 1170.393918112508 859.5060772626179 1173.362668112508 861.2873272626179C1176.331418112508 863.0685772626179 1179.690793112508 863.9592022626179 1183.440793112508 863.9592022626179C1187.190793112508 863.9592022626179 1190.534543112508 863.0685772626179 1193.472043112508 861.2873272626179C1196.409543112508 859.5060772626179 1198.722043112508 857.0685772626179 1200.409543112508 853.9748272626179C1202.097043112508 850.8810772626179 1202.940793112508 847.3967022626179 1202.940793112508 843.5217022626179C1202.940793112508 839.5842022626179 1202.097043112508 836.0842022626179 1200.409543112508 833.0217022626179C1198.722043112508 829.9592022626179 1196.409543112508 827.5217022626179 1193.472043112508 825.7092022626179C1190.534543112508 823.8967022626179 1187.190793112508 822.9904522626179 1183.440793112508 822.9904522626179Z "></path></g></g></g></g></svg>