<svg xmlns="http://www.w3.org/2000/svg" width="1000" height="1000" id="empty" style=""><rect width="1000" height="1000" x="0" y="0" fill="#000000" transform="matrix(1,0,0,1,0,0)"></rect><g id="logo" transform="matrix(1,0,0,1,0,0)"><g id="icon" transform="matrix(0.6716440286648077,0,0,0.6716440935863529,6.835281743427909e-16,13.916366237240403)"><path fill="#f1eded" d="M1673.3615671427156 1503.5112412161825C1646.0895671427156 1503.5112412161825 1623.9015671427155 1525.6992412161826 1623.9015671427155 1552.9712412161825C1623.9015671427155 1556.2852412161826 1626.5885671427156 1558.9722412161825 1629.9015671427155 1558.9722412161825C1633.2145671427156 1558.9722412161825 1635.9015671427155 1556.2852412161826 1635.9015671427155 1552.9712412161825C1635.9015671427155 1532.3162412161826 1652.7055671427156 1515.5112412161825 1673.3605671427156 1515.5112412161825C1676.6745671427154 1515.5112412161825 1679.3605671427156 1512.8252412161826 1679.3605671427156 1509.5112412161825C1679.3605671427156 1506.1972412161826 1676.6755671427156 1503.5112412161825 1673.3615671427156 1503.5112412161825Z " transform="matrix(0.4253262621505894,0,0,0.42532629504864233,32.716750429203586,24.35582094571079)"></path><path fill="#f1eded" d="M1673.3615671427156 1273.1562412161825L1480.2935671427156 1412.4952412161826L1480.2935671427156 1667.7062412161827L1866.4325671427155 1667.7062412161827L1866.4325671427155 1412.4952412161826L1673.3615671427156 1273.1562412161825ZM1673.3615671427156 1620.4542412161827C1636.1535671427155 1620.4542412161827 1605.8825671427155 1590.1822412161825 1605.8825671427155 1552.9722412161825C1605.8825671427155 1515.7632412161825 1636.1535671427155 1485.4912412161825 1673.3615671427156 1485.4912412161825C1710.5705671427156 1485.4912412161825 1740.8425671427156 1515.7632412161825 1740.8425671427156 1552.9722412161825C1740.8425671427156 1590.1812412161826 1710.5705671427156 1620.4542412161827 1673.3615671427156 1620.4542412161827ZM1808.6605671427155 1590.4262412161825C1808.6605671427155 1607.7242412161827 1794.5885671427156 1621.7962412161826 1777.2915671427156 1621.7962412161826L1722.2625671427156 1621.7962412161826C1743.7735671427156 1606.4672412161826 1757.8425671427156 1581.3392412161825 1757.8425671427156 1552.9712412161825C1757.8425671427156 1506.3882412161825 1719.9445671427154 1468.4902412161825 1673.3615671427156 1468.4902412161825C1626.7795671427155 1468.4902412161825 1588.8825671427155 1506.3882412161825 1588.8825671427155 1552.9712412161825C1588.8825671427155 1581.3392412161825 1602.9515671427155 1606.4672412161826 1624.4625671427154 1621.7962412161826L1569.4325671427155 1621.7962412161826C1552.1355671427154 1621.7962412161826 1538.0635671427156 1607.7242412161827 1538.0635671427156 1590.4262412161825L1538.0635671427156 1477.3352412161826C1538.0635671427156 1460.0362412161826 1552.1355671427154 1445.9642412161825 1569.4325671427155 1445.9642412161825L1630.2725671427156 1445.9642412161825L1640.0835671427155 1424.8902412161826C1642.2025671427155 1420.3402412161827 1647.3825671427155 1417.0372412161826 1652.4015671427155 1417.0372412161826L1710.0445671427156 1417.0372412161826C1715.0605671427154 1417.0372412161826 1720.2415671427154 1420.3392412161825 1722.3605671427156 1424.8882412161827L1732.1735671427155 1445.9642412161825L1777.2925671427156 1445.9642412161825C1794.5895671427154 1445.9642412161825 1808.6615671427155 1460.0362412161826 1808.6615671427155 1477.3352412161826L1808.6615671427155 1590.4262412161825Z " transform="matrix(0.4253262621505894,0,0,0.42532629504864233,32.716750429203586,24.35582094571079)"></path><g transform="matrix(0.8506525243011788,0,0,0.8506525900972847,32.716750429203586,24.35582094571079)"></g></g><g id="brand" fill="#f1eded" transform="matrix(0.6716440286648077,0,0,0.6716440935863529,6.835281743427909e-16,198.0774523486146)"><g transform="matrix(1,0,0,1,1.3969838411065363e-7,-0.000001229345780173752)"><path id="text" transform="matrix(1 0 0 1 -9.375 82.5)" d="M270.3951424879799 488.230690650993L270.3951424879799 499.949440650993L245.73889248797994 499.949440650993L245.73889248797994 523.480690650993L232.70764248797994 523.480690650993L232.70764248797994 460.668190650993L275.5513924879799 460.668190650993L275.5513924879799 472.386940650993L245.73889248797994 472.386940650993L245.73889248797994 488.230690650993L270.3951424879799 488.230690650993ZM319.9888924879799 459.261940650993C324.4888924879799 459.261940650993 328.7076424879799 460.058815650993 332.6451424879799 461.652565650993C336.5826424879799 463.246315650993 340.0670174879799 465.496315650993 343.0982674879799 468.402565650993C346.1295174879799 471.308815650993 348.5045174879799 474.761940650993 350.2232674879799 478.761940650993C351.9420174879799 482.761940650993 352.8013924879799 487.199440650993 352.8013924879799 492.074440650993C352.8013924879799 496.949440650993 351.9420174879799 501.386940650993 350.2232674879799 505.386940650993C348.5045174879799 509.386940650993 346.1295174879799 512.840065650993 343.0982674879799 515.746315650993C340.0670174879799 518.652565650993 336.5826424879799 520.902565650993 332.6451424879799 522.496315650993C328.7076424879799 524.090065650993 324.4888924879799 524.886940650993 319.9888924879799 524.886940650993C315.4888924879799 524.886940650993 311.2545174879799 524.090065650993 307.2857674879799 522.496315650993C303.3170174879799 520.902565650993 299.8170174879799 518.652565650993 296.7857674879799 515.746315650993C293.7545174879799 512.840065650993 291.3795174879799 509.386940650993 289.6607674879799 505.386940650993C287.9420174879799 501.386940650993 287.0826424879799 496.949440650993 287.0826424879799 492.074440650993C287.0826424879799 487.199440650993 287.9420174879799 482.761940650993 289.6607674879799 478.761940650993C291.3795174879799 474.761940650993 293.7545174879799 471.308815650993 296.7857674879799 468.402565650993C299.8170174879799 465.496315650993 303.3170174879799 463.246315650993 307.2857674879799 461.652565650993C311.2545174879799 460.058815650993 315.4888924879799 459.261940650993 319.9888924879799 459.261940650993ZM319.9888924879799 471.543190650993C316.2388924879799 471.543190650993 312.8795174879799 472.449440650993 309.9107674879799 474.261940650993C306.9420174879799 476.074440650993 304.6138924879799 478.511940650993 302.9263924879799 481.574440650993C301.2388924879799 484.636940650993 300.3951424879799 488.136940650993 300.3951424879799 492.074440650993C300.3951424879799 495.949440650993 301.2388924879799 499.433815650993 302.9263924879799 502.527565650993C304.6138924879799 505.621315650993 306.9420174879799 508.058815650993 309.9107674879799 509.840065650993C312.8795174879799 511.621315650993 316.2388924879799 512.511940650993 319.9888924879799 512.511940650993C323.7388924879799 512.511940650993 327.0826424879799 511.621315650993 330.0201424879799 509.840065650993C332.9576424879799 508.058815650993 335.2701424879799 505.621315650993 336.9576424879799 502.527565650993C338.6451424879799 499.433815650993 339.4888924879799 495.949440650993 339.4888924879799 492.074440650993C339.4888924879799 488.136940650993 338.6451424879799 484.636940650993 336.9576424879799 481.574440650993C335.2701424879799 478.511940650993 332.9576424879799 476.074440650993 330.0201424879799 474.261940650993C327.0826424879799 472.449440650993 323.7388924879799 471.543190650993 319.9888924879799 471.543190650993ZM410.8326424879799 460.668190650993L410.8326424879799 472.386940650993L390.7701424879799 472.386940650993L390.7701424879799 523.199440650993L377.8326424879799 523.199440650993L377.8326424879799 472.386940650993L357.7701424879799 472.386940650993L357.7701424879799 460.668190650993L410.8326424879799 460.668190650993ZM449.5513924879799 459.261940650993C454.0513924879799 459.261940650993 458.2701424879799 460.058815650993 462.2076424879799 461.652565650993C466.1451424879799 463.246315650993 469.6295174879799 465.496315650993 472.6607674879799 468.402565650993C475.6920174879799 471.308815650993 478.0670174879799 474.761940650993 479.7857674879799 478.761940650993C481.5045174879799 482.761940650993 482.3638924879799 487.199440650993 482.3638924879799 492.074440650993C482.3638924879799 496.949440650993 481.5045174879799 501.386940650993 479.7857674879799 505.386940650993C478.0670174879799 509.386940650993 475.6920174879799 512.840065650993 472.6607674879799 515.746315650993C469.6295174879799 518.652565650993 466.1451424879799 520.902565650993 462.2076424879799 522.496315650993C458.2701424879799 524.090065650993 454.0513924879799 524.886940650993 449.5513924879799 524.886940650993C445.0513924879799 524.886940650993 440.8170174879799 524.090065650993 436.8482674879799 522.496315650993C432.8795174879799 520.902565650993 429.3795174879799 518.652565650993 426.3482674879799 515.746315650993C423.3170174879799 512.840065650993 420.9420174879799 509.386940650993 419.2232674879799 505.386940650993C417.5045174879799 501.386940650993 416.6451424879799 496.949440650993 416.6451424879799 492.074440650993C416.6451424879799 487.199440650993 417.5045174879799 482.761940650993 419.2232674879799 478.761940650993C420.9420174879799 474.761940650993 423.3170174879799 471.308815650993 426.3482674879799 468.402565650993C429.3795174879799 465.496315650993 432.8795174879799 463.246315650993 436.8482674879799 461.652565650993C440.8170174879799 460.058815650993 445.0513924879799 459.261940650993 449.5513924879799 459.261940650993ZM449.5513924879799 471.543190650993C445.8013924879799 471.543190650993 442.4420174879799 472.449440650993 439.4732674879799 474.261940650993C436.5045174879799 476.074440650993 434.1763924879799 478.511940650993 432.4888924879799 481.574440650993C430.8013924879799 484.636940650993 429.9576424879799 488.136940650993 429.9576424879799 492.074440650993C429.9576424879799 495.949440650993 430.8013924879799 499.433815650993 432.4888924879799 502.527565650993C434.1763924879799 505.621315650993 436.5045174879799 508.058815650993 439.4732674879799 509.840065650993C442.4420174879799 511.621315650993 445.8013924879799 512.511940650993 449.5513924879799 512.511940650993C453.3013924879799 512.511940650993 456.6451424879799 511.621315650993 459.5826424879799 509.840065650993C462.5201424879799 508.058815650993 464.8326424879799 505.621315650993 466.5201424879799 502.527565650993C468.2076424879799 499.433815650993 469.0513924879799 495.949440650993 469.0513924879799 492.074440650993C469.0513924879799 488.136940650993 468.2076424879799 484.636940650993 466.5201424879799 481.574440650993C464.8326424879799 478.511940650993 462.5201424879799 476.074440650993 459.5826424879799 474.261940650993C456.6451424879799 472.449440650993 453.3013924879799 471.543190650993 449.5513924879799 471.543190650993ZM526.2388924879799 489.449440650993L547.6138924879799 489.449440650993L547.6138924879799 515.043190650993C544.9888924879799 517.793190650993 541.6607674879799 520.121315650993 537.6295174879799 522.027565650993C533.5982674879799 523.933815650993 529.0513924879799 524.886940650993 523.9888924879799 524.886940650993C519.4888924879799 524.886940650993 515.2388924879799 524.090065650993 511.2388924879799 522.496315650993C507.2388924879799 520.902565650993 503.7076424879799 518.652565650993 500.6451424879799 515.746315650993C497.5826424879799 512.840065650993 495.1763924879799 509.386940650993 493.4263924879799 505.386940650993C491.6763924879799 501.386940650993 490.8013924879799 496.949440650993 490.8013924879799 492.074440650993C490.8013924879799 487.199440650993 491.6763924879799 482.761940650993 493.4263924879799 478.761940650993C495.1763924879799 474.761940650993 497.5826424879799 471.308815650993 500.6451424879799 468.402565650993C503.7076424879799 465.496315650993 507.2388924879799 463.246315650993 511.2388924879799 461.652565650993C515.2388924879799 460.058815650993 519.4888924879799 459.261940650993 523.9888924879799 459.261940650993C527.9263924879799 459.261940650993 531.3326424879799 459.808815650993 534.2076424879799 460.902565650993C537.0826424879799 461.996315650993 539.5826424879799 463.480690650993 541.7076424879799 465.355690650993L541.7076424879799 478.480690650993C540.2076424879799 477.355690650993 538.6451424879799 476.261940650993 537.0201424879799 475.199440650993C535.3951424879799 474.136940650993 533.5670174879799 473.261940650993 531.5357674879799 472.574440650993C529.5045174879799 471.886940650993 527.1138924879799 471.543190650993 524.3638924879799 471.543190650993C520.6138924879799 471.543190650993 517.2076424879799 472.449440650993 514.1451424879799 474.261940650993C511.0826424879799 476.074440650993 508.6451424879799 478.511940650993 506.8326424879799 481.574440650993C505.0201424879799 484.636940650993 504.1138924879799 488.136940650993 504.1138924879799 492.074440650993C504.1138924879799 495.949440650993 505.0201424879799 499.433815650993 506.8326424879799 502.527565650993C508.6451424879799 505.621315650993 511.0826424879799 508.058815650993 514.1451424879799 509.840065650993C517.2076424879799 511.621315650993 520.6138924879799 512.511940650993 524.3638924879799 512.511940650993C527.2388924879799 512.511940650993 529.5513924879799 512.168190650993 531.3013924879799 511.480690650993C533.0513924879799 510.793190650993 534.4263924879799 510.043190650993 535.4263924879799 509.230690650993L535.5201424879799 498.824440650993L526.2388924879799 498.824440650993L526.2388924879799 489.449440650993ZM587.3638924879799 460.668190650993C590.3013924879799 460.668190650993 593.1763924879799 461.074440650993 595.9888924879799 461.886940650993C598.8013924879799 462.699440650993 601.3482674879799 463.949440650993 603.6295174879799 465.636940650993C605.9107674879799 467.324440650993 607.7232674879799 469.433815650993 609.0670174879799 471.965065650993C610.4107674879799 474.496315650993 611.0826424879799 477.511940650993 611.0826424879799 481.011940650993C611.0826424879799 484.699440650993 610.1607674879799 487.871315650993 608.3170174879799 490.527565650993C606.4732674879799 493.183815650993 604.0513924879799 495.246315650993 601.0513924879799 496.715065650993C598.0513924879799 498.183815650993 594.8013924879799 499.043190650993 591.3013924879799 499.293190650993L613.8951424879799 523.480690650993L596.7388924879799 523.480690650993L574.8951424879799 497.793190650993L574.8951424879799 523.480690650993L561.8638924879799 523.480690650993L561.8638924879799 460.668190650993L587.3638924879799 460.668190650993ZM574.8951424879799 472.855690650993L574.8951424879799 488.699440650993C576.3951424879799 489.199440650993 578.0670174879799 489.590065650993 579.9107674879799 489.871315650993C581.7545174879799 490.152565650993 583.6138924879799 490.293190650993 585.4888924879799 490.293190650993C589.2388924879799 490.293190650993 592.2232674879799 489.527565650993 594.4420174879799 487.996315650993C596.6607674879799 486.465065650993 597.7701424879799 484.293190650993 597.7701424879799 481.480690650993C597.7701424879799 478.418190650993 596.5982674879799 476.215065650993 594.2545174879799 474.871315650993C591.9107674879799 473.527565650993 589.0513924879799 472.855690650993 585.6763924879799 472.855690650993L574.8951424879799 472.855690650993ZM651.7701424879799 460.199440650993L681.0201424879799 523.480690650993L665.7388924879799 523.480690650993L660.9576424879799 511.761940650993L636.1138924879799 511.761940650993L631.3326424879799 523.480690650993L616.0513924879799 523.480690650993L645.3013924879799 460.199440650993L651.7701424879799 460.199440650993ZM648.5826424879799 481.480690650993L640.7076424879799 500.699440650993L656.4576424879799 500.699440650993L648.5826424879799 481.480690650993ZM729.0201424879799 488.230690650993L729.0201424879799 499.949440650993L704.3638924879799 499.949440650993L704.3638924879799 523.480690650993L691.3326424879799 523.480690650993L691.3326424879799 460.668190650993L734.1763924879799 460.668190650993L734.1763924879799 472.386940650993L704.3638924879799 472.386940650993L704.3638924879799 488.230690650993L729.0201424879799 488.230690650993ZM784.6138924879799 511.761940650993L784.6138924879799 523.480690650993L750.3951424879799 523.480690650993L750.3951424879799 511.761940650993L760.9888924879799 511.761940650993L760.9888924879799 472.386940650993L750.3951424879799 472.386940650993L750.3951424879799 460.668190650993L784.6138924879799 460.668190650993L784.6138924879799 472.386940650993L774.0201424879799 472.386940650993L774.0201424879799 511.761940650993L784.6138924879799 511.761940650993ZM783.7701424879799 440.980690650993L770.9263924879799 454.293190650993L761.3638924879799 454.293190650993L771.2076424879799 440.980690650993L783.7701424879799 440.980690650993ZM830.1763924879799 460.199440650993L859.4263924879799 523.480690650993L844.1451424879799 523.480690650993L839.3638924879799 511.761940650993L814.5201424879799 511.761940650993L809.7388924879799 523.480690650993L794.4576424879799 523.480690650993L823.7076424879799 460.199440650993L830.1763924879799 460.199440650993ZM826.9888924879799 481.480690650993L819.1138924879799 500.699440650993L834.8638924879799 500.699440650993L826.9888924879799 481.480690650993ZM925.1451424879799 460.199440650993L954.3951424879799 523.480690650993L939.1138924879799 523.480690650993L934.3326424879799 511.761940650993L909.4888924879799 511.761940650993L904.7076424879799 523.480690650993L889.4263924879799 523.480690650993L918.6763924879799 460.199440650993L925.1451424879799 460.199440650993ZM921.9576424879799 481.480690650993L914.0826424879799 500.699440650993L929.8326424879799 500.699440650993L921.9576424879799 481.480690650993ZM1055.08264248798 460.199440650993L1055.08264248798 523.480690650993L1042.05139248798 523.480690650993L1042.05139248798 485.230690650993L1025.92639248798 502.855690650993L1022.1763924879799 502.855690650993L1005.8638924879799 485.230690650993L1005.8638924879799 523.480690650993L992.8326424879799 523.480690650993L992.8326424879799 460.199440650993L997.2388924879799 460.199440650993L1024.05139248798 488.136940650993L1050.67639248798 460.199440650993L1055.08264248798 460.199440650993ZM1101.11389248798 460.199440650993L1130.36389248798 523.480690650993L1115.08264248798 523.480690650993L1110.30139248798 511.761940650993L1085.45764248798 511.761940650993L1080.67639248798 523.480690650993L1065.39514248798 523.480690650993L1094.64514248798 460.199440650993L1101.11389248798 460.199440650993ZM1097.92639248798 481.480690650993L1090.05139248798 500.699440650993L1105.80139248798 500.699440650993L1097.92639248798 481.480690650993ZM1195.61389248798 460.668190650993L1195.61389248798 523.949440650993L1190.92639248798 523.949440650993L1153.70764248798 485.605690650993L1153.70764248798 523.480690650993L1140.67639248798 523.480690650993L1140.67639248798 460.199440650993L1145.36389248798 460.199440650993L1182.58264248798 499.105690650993L1182.58264248798 460.668190650993L1195.61389248798 460.668190650993ZM1242.11389248798 459.261940650993C1246.61389248798 459.261940650993 1250.83264248798 460.058815650993 1254.77014248798 461.652565650993C1258.70764248798 463.246315650993 1262.19201748798 465.496315650993 1265.22326748798 468.402565650993C1268.25451748798 471.308815650993 1270.62951748798 474.761940650993 1272.34826748798 478.761940650993C1274.06701748798 482.761940650993 1274.92639248798 487.199440650993 1274.92639248798 492.074440650993C1274.92639248798 496.949440650993 1274.06701748798 501.386940650993 1272.34826748798 505.386940650993C1270.62951748798 509.386940650993 1268.25451748798 512.840065650993 1265.22326748798 515.746315650993C1262.19201748798 518.652565650993 1258.70764248798 520.902565650993 1254.77014248798 522.496315650993C1250.83264248798 524.090065650993 1246.61389248798 524.886940650993 1242.11389248798 524.886940650993C1237.61389248798 524.886940650993 1233.37951748798 524.090065650993 1229.41076748798 522.496315650993C1225.44201748798 520.902565650993 1221.94201748798 518.652565650993 1218.91076748798 515.746315650993C1215.87951748798 512.840065650993 1213.50451748798 509.386940650993 1211.78576748798 505.386940650993C1210.06701748798 501.386940650993 1209.20764248798 496.949440650993 1209.20764248798 492.074440650993C1209.20764248798 487.199440650993 1210.06701748798 482.761940650993 1211.78576748798 478.761940650993C1213.50451748798 474.761940650993 1215.87951748798 471.308815650993 1218.91076748798 468.402565650993C1221.94201748798 465.496315650993 1225.44201748798 463.246315650993 1229.41076748798 461.652565650993C1233.37951748798 460.058815650993 1237.61389248798 459.261940650993 1242.11389248798 459.261940650993ZM1242.11389248798 471.543190650993C1238.36389248798 471.543190650993 1235.00451748798 472.449440650993 1232.03576748798 474.261940650993C1229.06701748798 476.074440650993 1226.73889248798 478.511940650993 1225.05139248798 481.574440650993C1223.36389248798 484.636940650993 1222.52014248798 488.136940650993 1222.52014248798 492.074440650993C1222.52014248798 495.949440650993 1223.36389248798 499.433815650993 1225.05139248798 502.527565650993C1226.73889248798 505.621315650993 1229.06701748798 508.058815650993 1232.03576748798 509.840065650993C1235.00451748798 511.621315650993 1238.36389248798 512.511940650993 1242.11389248798 512.511940650993C1245.86389248798 512.511940650993 1249.20764248798 511.621315650993 1252.14514248798 509.840065650993C1255.08264248798 508.058815650993 1257.39514248798 505.621315650993 1259.08264248798 502.527565650993C1260.77014248798 499.433815650993 1261.61389248798 495.949440650993 1261.61389248798 492.074440650993C1261.61389248798 488.136940650993 1260.77014248798 484.636940650993 1259.08264248798 481.574440650993C1257.39514248798 478.511940650993 1255.08264248798 476.074440650993 1252.14514248798 474.261940650993C1249.20764248798 472.449440650993 1245.86389248798 471.543190650993 1242.11389248798 471.543190650993Z "></path></g></g></g></svg>