<svg xmlns="http://www.w3.org/2000/svg" width="1000" height="1000" id="empty" style=""><g id="logo" transform="matrix(1,0,0,1,0,0)"><g id="icon" transform="matrix(0.6716440286648077,0,0,0.6716440286648077,6.835281743427909e-16,13.916389030000623)"><path fill="#f1eded" d="M1673.3613421586006 1503.5114235639187C1646.0893421586006 1503.5114235639187 1623.9013421586005 1525.6994235639186 1623.9013421586005 1552.9714235639185C1623.9013421586005 1556.2854235639186 1626.5883421586004 1558.9724235639187 1629.9013421586005 1558.9724235639187C1633.2143421586006 1558.9724235639187 1635.9013421586005 1556.2854235639186 1635.9013421586005 1552.9714235639185C1635.9013421586005 1532.3164235639185 1652.7053421586006 1515.5114235639187 1673.3603421586006 1515.5114235639187C1676.6743421586007 1515.5114235639187 1679.3603421586006 1512.8254235639185 1679.3603421586006 1509.5114235639187C1679.3603421586006 1506.1974235639186 1676.6753421586004 1503.5114235639187 1673.3613421586006 1503.5114235639187Z " transform="matrix(0.4253263293798884,0,0,0.42532629504864233,32.716746601772385,24.35582094571079)"></path><path fill="#f1eded" d="M1673.3613421586006 1273.1564235639187L1480.2933421586008 1412.4954235639186L1480.2933421586008 1667.7064235639186L1866.4323421586007 1667.7064235639186L1866.4323421586007 1412.4954235639186L1673.3613421586006 1273.1564235639187ZM1673.3613421586006 1620.4544235639187C1636.1533421586007 1620.4544235639187 1605.8823421586007 1590.1824235639187 1605.8823421586007 1552.9724235639187C1605.8823421586007 1515.7634235639186 1636.1533421586007 1485.4914235639187 1673.3613421586006 1485.4914235639187C1710.5703421586006 1485.4914235639187 1740.8423421586008 1515.7634235639186 1740.8423421586008 1552.9724235639187C1740.8423421586008 1590.1814235639185 1710.5703421586006 1620.4544235639187 1673.3613421586006 1620.4544235639187ZM1808.6603421586005 1590.4264235639187C1808.6603421586005 1607.7244235639187 1794.5883421586007 1621.7964235639188 1777.2913421586006 1621.7964235639188L1722.2623421586006 1621.7964235639188C1743.7733421586006 1606.4674235639186 1757.8423421586008 1581.3394235639187 1757.8423421586008 1552.9714235639187C1757.8423421586008 1506.3884235639186 1719.9443421586006 1468.4904235639187 1673.3613421586006 1468.4904235639187C1626.7793421586007 1468.4904235639187 1588.8823421586007 1506.3884235639186 1588.8823421586007 1552.9714235639187C1588.8823421586007 1581.3394235639187 1602.9513421586007 1606.4674235639186 1624.4623421586007 1621.7964235639188L1569.4323421586007 1621.7964235639188C1552.1353421586007 1621.7964235639188 1538.0633421586008 1607.7244235639187 1538.0633421586008 1590.4264235639187L1538.0633421586008 1477.3354235639188C1538.0633421586008 1460.0364235639188 1552.1353421586007 1445.9644235639187 1569.4323421586007 1445.9644235639187L1630.2723421586006 1445.9644235639187L1640.0833421586008 1424.8904235639188C1642.2023421586007 1420.3404235639186 1647.3823421586007 1417.0374235639188 1652.4013421586005 1417.0374235639188L1710.0443421586006 1417.0374235639188C1715.0603421586006 1417.0374235639188 1720.2413421586007 1420.3394235639187 1722.3603421586006 1424.8884235639186L1732.1733421586007 1445.9644235639187L1777.2923421586006 1445.9644235639187C1794.5893421586006 1445.9644235639187 1808.6613421586007 1460.0364235639188 1808.6613421586007 1477.3354235639188L1808.6613421586007 1590.4264235639187Z " transform="matrix(0.4253263293798884,0,0,0.42532629504864233,32.716746601772385,24.35582094571079)"></path><g transform="matrix(0.8506526587597768,0,0,0.8506525900972847,32.716746601772385,24.35582094571079)"></g></g><g id="brand" fill="#f1eded" transform="matrix(0.6716440286648077,0,0,0.6716440286648077,6.835281743427909e-16,198.07749833414474)"><g transform="matrix(1,0,0,1,1.3969838411065363e-7,-0.000001229345780173752)"><path id="text" transform="matrix(1 0 0 1 -9.375 82.5)" d="M270.39514248798 488.230707173125L270.39514248798 499.949457173125L245.73889248798002 499.949457173125L245.73889248798002 523.480707173125L232.70764248798002 523.480707173125L232.70764248798002 460.668207173125L275.55139248798 460.668207173125L275.55139248798 472.386957173125L245.73889248798002 472.386957173125L245.73889248798002 488.230707173125L270.39514248798 488.230707173125ZM319.98889248798 459.261957173125C324.48889248798 459.261957173125 328.70764248798 460.058832173125 332.64514248798 461.652582173125C336.58264248798 463.246332173125 340.06701748798 465.496332173125 343.09826748798 468.402582173125C346.12951748798 471.308832173125 348.50451748798 474.761957173125 350.22326748798 478.761957173125C351.94201748798 482.761957173125 352.80139248798 487.199457173125 352.80139248798 492.074457173125C352.80139248798 496.949457173125 351.94201748798 501.386957173125 350.22326748798 505.386957173125C348.50451748798 509.386957173125 346.12951748798 512.840082173125 343.09826748798 515.746332173125C340.06701748798 518.652582173125 336.58264248798 520.902582173125 332.64514248798 522.496332173125C328.70764248798 524.090082173125 324.48889248798 524.886957173125 319.98889248798 524.886957173125C315.48889248798 524.886957173125 311.25451748798 524.090082173125 307.28576748798 522.496332173125C303.31701748798 520.902582173125 299.81701748798 518.652582173125 296.78576748798 515.746332173125C293.75451748798 512.840082173125 291.37951748798 509.386957173125 289.66076748798 505.386957173125C287.94201748798 501.386957173125 287.08264248798 496.949457173125 287.08264248798 492.074457173125C287.08264248798 487.199457173125 287.94201748798 482.761957173125 289.66076748798 478.761957173125C291.37951748798 474.761957173125 293.75451748798 471.308832173125 296.78576748798 468.402582173125C299.81701748798 465.496332173125 303.31701748798 463.246332173125 307.28576748798 461.652582173125C311.25451748798 460.058832173125 315.48889248798 459.261957173125 319.98889248798 459.261957173125ZM319.98889248798 471.543207173125C316.23889248798 471.543207173125 312.87951748798 472.449457173125 309.91076748798 474.261957173125C306.94201748798 476.074457173125 304.61389248798 478.511957173125 302.92639248798 481.574457173125C301.23889248798 484.636957173125 300.39514248798 488.136957173125 300.39514248798 492.074457173125C300.39514248798 495.949457173125 301.23889248798 499.433832173125 302.92639248798 502.527582173125C304.61389248798 505.621332173125 306.94201748798 508.058832173125 309.91076748798 509.840082173125C312.87951748798 511.621332173125 316.23889248798 512.511957173125 319.98889248798 512.511957173125C323.73889248798 512.511957173125 327.08264248798 511.621332173125 330.02014248798 509.840082173125C332.95764248798 508.058832173125 335.27014248798 505.621332173125 336.95764248798 502.527582173125C338.64514248798 499.433832173125 339.48889248798 495.949457173125 339.48889248798 492.074457173125C339.48889248798 488.136957173125 338.64514248798 484.636957173125 336.95764248798 481.574457173125C335.27014248798 478.511957173125 332.95764248798 476.074457173125 330.02014248798 474.261957173125C327.08264248798 472.449457173125 323.73889248798 471.543207173125 319.98889248798 471.543207173125ZM410.83264248798 460.668207173125L410.83264248798 472.386957173125L390.77014248798 472.386957173125L390.77014248798 523.199457173125L377.83264248798 523.199457173125L377.83264248798 472.386957173125L357.77014248798 472.386957173125L357.77014248798 460.668207173125L410.83264248798 460.668207173125ZM449.55139248798 459.261957173125C454.05139248798 459.261957173125 458.27014248798 460.058832173125 462.20764248798 461.652582173125C466.14514248798 463.246332173125 469.62951748798 465.496332173125 472.66076748798 468.402582173125C475.69201748798 471.308832173125 478.06701748798 474.761957173125 479.78576748798 478.761957173125C481.50451748798 482.761957173125 482.36389248798 487.199457173125 482.36389248798 492.074457173125C482.36389248798 496.949457173125 481.50451748798 501.386957173125 479.78576748798 505.386957173125C478.06701748798 509.386957173125 475.69201748798 512.840082173125 472.66076748798 515.746332173125C469.62951748798 518.652582173125 466.14514248798 520.902582173125 462.20764248798 522.496332173125C458.27014248798 524.090082173125 454.05139248798 524.886957173125 449.55139248798 524.886957173125C445.05139248798 524.886957173125 440.81701748798 524.090082173125 436.84826748798 522.496332173125C432.87951748798 520.902582173125 429.37951748798 518.652582173125 426.34826748798 515.746332173125C423.31701748798 512.840082173125 420.94201748798 509.386957173125 419.22326748798 505.386957173125C417.50451748798 501.386957173125 416.64514248798 496.949457173125 416.64514248798 492.074457173125C416.64514248798 487.199457173125 417.50451748798 482.761957173125 419.22326748798 478.761957173125C420.94201748798 474.761957173125 423.31701748798 471.308832173125 426.34826748798 468.402582173125C429.37951748798 465.496332173125 432.87951748798 463.246332173125 436.84826748798 461.652582173125C440.81701748798 460.058832173125 445.05139248798 459.261957173125 449.55139248798 459.261957173125ZM449.55139248798 471.543207173125C445.80139248798 471.543207173125 442.44201748798 472.449457173125 439.47326748798 474.261957173125C436.50451748798 476.074457173125 434.17639248798 478.511957173125 432.48889248798 481.574457173125C430.80139248798 484.636957173125 429.95764248798 488.136957173125 429.95764248798 492.074457173125C429.95764248798 495.949457173125 430.80139248798 499.433832173125 432.48889248798 502.527582173125C434.17639248798 505.621332173125 436.50451748798 508.058832173125 439.47326748798 509.840082173125C442.44201748798 511.621332173125 445.80139248798 512.511957173125 449.55139248798 512.511957173125C453.30139248798 512.511957173125 456.64514248798 511.621332173125 459.58264248798 509.840082173125C462.52014248798 508.058832173125 464.83264248798 505.621332173125 466.52014248798 502.527582173125C468.20764248798 499.433832173125 469.05139248798 495.949457173125 469.05139248798 492.074457173125C469.05139248798 488.136957173125 468.20764248798 484.636957173125 466.52014248798 481.574457173125C464.83264248798 478.511957173125 462.52014248798 476.074457173125 459.58264248798 474.261957173125C456.64514248798 472.449457173125 453.30139248798 471.543207173125 449.55139248798 471.543207173125ZM526.23889248798 489.449457173125L547.61389248798 489.449457173125L547.61389248798 515.043207173125C544.98889248798 517.793207173125 541.66076748798 520.121332173125 537.62951748798 522.027582173125C533.59826748798 523.933832173125 529.05139248798 524.886957173125 523.98889248798 524.886957173125C519.48889248798 524.886957173125 515.23889248798 524.090082173125 511.23889248798 522.496332173125C507.23889248798 520.902582173125 503.70764248798 518.652582173125 500.64514248798 515.746332173125C497.58264248798 512.840082173125 495.17639248798 509.386957173125 493.42639248798 505.386957173125C491.67639248798 501.386957173125 490.80139248798 496.949457173125 490.80139248798 492.074457173125C490.80139248798 487.199457173125 491.67639248798 482.761957173125 493.42639248798 478.761957173125C495.17639248798 474.761957173125 497.58264248798 471.308832173125 500.64514248798 468.402582173125C503.70764248798 465.496332173125 507.23889248798 463.246332173125 511.23889248798 461.652582173125C515.23889248798 460.058832173125 519.48889248798 459.261957173125 523.98889248798 459.261957173125C527.92639248798 459.261957173125 531.33264248798 459.808832173125 534.20764248798 460.902582173125C537.08264248798 461.996332173125 539.58264248798 463.480707173125 541.70764248798 465.355707173125L541.70764248798 478.480707173125C540.20764248798 477.355707173125 538.64514248798 476.261957173125 537.02014248798 475.199457173125C535.39514248798 474.136957173125 533.56701748798 473.261957173125 531.53576748798 472.574457173125C529.50451748798 471.886957173125 527.11389248798 471.543207173125 524.36389248798 471.543207173125C520.61389248798 471.543207173125 517.20764248798 472.449457173125 514.14514248798 474.261957173125C511.08264248798 476.074457173125 508.64514248798 478.511957173125 506.83264248798 481.574457173125C505.02014248798 484.636957173125 504.11389248798 488.136957173125 504.11389248798 492.074457173125C504.11389248798 495.949457173125 505.02014248798 499.433832173125 506.83264248798 502.527582173125C508.64514248798 505.621332173125 511.08264248798 508.058832173125 514.14514248798 509.840082173125C517.20764248798 511.621332173125 520.61389248798 512.511957173125 524.36389248798 512.511957173125C527.23889248798 512.511957173125 529.55139248798 512.168207173125 531.30139248798 511.480707173125C533.05139248798 510.793207173125 534.42639248798 510.043207173125 535.42639248798 509.230707173125L535.52014248798 498.824457173125L526.23889248798 498.824457173125L526.23889248798 489.449457173125ZM587.36389248798 460.668207173125C590.30139248798 460.668207173125 593.17639248798 461.074457173125 595.98889248798 461.886957173125C598.80139248798 462.699457173125 601.34826748798 463.949457173125 603.62951748798 465.636957173125C605.91076748798 467.324457173125 607.72326748798 469.433832173125 609.06701748798 471.965082173125C610.41076748798 474.496332173125 611.08264248798 477.511957173125 611.08264248798 481.011957173125C611.08264248798 484.699457173125 610.16076748798 487.871332173125 608.31701748798 490.527582173125C606.47326748798 493.183832173125 604.05139248798 495.246332173125 601.05139248798 496.715082173125C598.05139248798 498.183832173125 594.80139248798 499.043207173125 591.30139248798 499.293207173125L613.89514248798 523.480707173125L596.73889248798 523.480707173125L574.89514248798 497.793207173125L574.89514248798 523.480707173125L561.86389248798 523.480707173125L561.86389248798 460.668207173125L587.36389248798 460.668207173125ZM574.89514248798 472.855707173125L574.89514248798 488.699457173125C576.39514248798 489.199457173125 578.06701748798 489.590082173125 579.91076748798 489.871332173125C581.75451748798 490.152582173125 583.61389248798 490.293207173125 585.48889248798 490.293207173125C589.23889248798 490.293207173125 592.22326748798 489.527582173125 594.44201748798 487.996332173125C596.66076748798 486.465082173125 597.77014248798 484.293207173125 597.77014248798 481.480707173125C597.77014248798 478.418207173125 596.59826748798 476.215082173125 594.25451748798 474.871332173125C591.91076748798 473.527582173125 589.05139248798 472.855707173125 585.67639248798 472.855707173125L574.89514248798 472.855707173125ZM651.77014248798 460.199457173125L681.02014248798 523.480707173125L665.73889248798 523.480707173125L660.95764248798 511.761957173125L636.11389248798 511.761957173125L631.33264248798 523.480707173125L616.05139248798 523.480707173125L645.30139248798 460.199457173125L651.77014248798 460.199457173125ZM648.58264248798 481.480707173125L640.70764248798 500.699457173125L656.45764248798 500.699457173125L648.58264248798 481.480707173125ZM729.02014248798 488.230707173125L729.02014248798 499.949457173125L704.36389248798 499.949457173125L704.36389248798 523.480707173125L691.33264248798 523.480707173125L691.33264248798 460.668207173125L734.17639248798 460.668207173125L734.17639248798 472.386957173125L704.36389248798 472.386957173125L704.36389248798 488.230707173125L729.02014248798 488.230707173125ZM784.61389248798 511.761957173125L784.61389248798 523.480707173125L750.39514248798 523.480707173125L750.39514248798 511.761957173125L760.98889248798 511.761957173125L760.98889248798 472.386957173125L750.39514248798 472.386957173125L750.39514248798 460.668207173125L784.61389248798 460.668207173125L784.61389248798 472.386957173125L774.02014248798 472.386957173125L774.02014248798 511.761957173125L784.61389248798 511.761957173125ZM783.77014248798 440.980707173125L770.92639248798 454.293207173125L761.36389248798 454.293207173125L771.20764248798 440.980707173125L783.77014248798 440.980707173125ZM830.17639248798 460.199457173125L859.42639248798 523.480707173125L844.14514248798 523.480707173125L839.36389248798 511.761957173125L814.52014248798 511.761957173125L809.73889248798 523.480707173125L794.45764248798 523.480707173125L823.70764248798 460.199457173125L830.17639248798 460.199457173125ZM826.98889248798 481.480707173125L819.11389248798 500.699457173125L834.86389248798 500.699457173125L826.98889248798 481.480707173125ZM925.14514248798 460.199457173125L954.39514248798 523.480707173125L939.11389248798 523.480707173125L934.33264248798 511.761957173125L909.48889248798 511.761957173125L904.70764248798 523.480707173125L889.42639248798 523.480707173125L918.67639248798 460.199457173125L925.14514248798 460.199457173125ZM921.95764248798 481.480707173125L914.08264248798 500.699457173125L929.83264248798 500.699457173125L921.95764248798 481.480707173125ZM1055.0826424879801 460.199457173125L1055.0826424879801 523.480707173125L1042.0513924879801 523.480707173125L1042.0513924879801 485.230707173125L1025.9263924879801 502.855707173125L1022.17639248798 502.855707173125L1005.86389248798 485.230707173125L1005.86389248798 523.480707173125L992.83264248798 523.480707173125L992.83264248798 460.199457173125L997.23889248798 460.199457173125L1024.0513924879801 488.136957173125L1050.6763924879801 460.199457173125L1055.0826424879801 460.199457173125ZM1101.1138924879801 460.199457173125L1130.3638924879801 523.480707173125L1115.0826424879801 523.480707173125L1110.3013924879801 511.761957173125L1085.4576424879801 511.761957173125L1080.6763924879801 523.480707173125L1065.3951424879801 523.480707173125L1094.6451424879801 460.199457173125L1101.1138924879801 460.199457173125ZM1097.9263924879801 481.480707173125L1090.0513924879801 500.699457173125L1105.8013924879801 500.699457173125L1097.9263924879801 481.480707173125ZM1195.6138924879801 460.668207173125L1195.6138924879801 523.949457173125L1190.9263924879801 523.949457173125L1153.7076424879801 485.605707173125L1153.7076424879801 523.480707173125L1140.6763924879801 523.480707173125L1140.6763924879801 460.199457173125L1145.3638924879801 460.199457173125L1182.5826424879801 499.105707173125L1182.5826424879801 460.668207173125L1195.6138924879801 460.668207173125ZM1242.1138924879801 459.261957173125C1246.6138924879801 459.261957173125 1250.8326424879801 460.058832173125 1254.7701424879801 461.652582173125C1258.7076424879801 463.246332173125 1262.1920174879801 465.496332173125 1265.2232674879801 468.402582173125C1268.2545174879801 471.308832173125 1270.6295174879801 474.761957173125 1272.3482674879801 478.761957173125C1274.0670174879801 482.761957173125 1274.9263924879801 487.199457173125 1274.9263924879801 492.074457173125C1274.9263924879801 496.949457173125 1274.0670174879801 501.386957173125 1272.3482674879801 505.386957173125C1270.6295174879801 509.386957173125 1268.2545174879801 512.840082173125 1265.2232674879801 515.746332173125C1262.1920174879801 518.652582173125 1258.7076424879801 520.902582173125 1254.7701424879801 522.496332173125C1250.8326424879801 524.090082173125 1246.6138924879801 524.886957173125 1242.1138924879801 524.886957173125C1237.6138924879801 524.886957173125 1233.3795174879801 524.090082173125 1229.4107674879801 522.496332173125C1225.4420174879801 520.902582173125 1221.9420174879801 518.652582173125 1218.9107674879801 515.746332173125C1215.8795174879801 512.840082173125 1213.5045174879801 509.386957173125 1211.7857674879801 505.386957173125C1210.0670174879801 501.386957173125 1209.2076424879801 496.949457173125 1209.2076424879801 492.074457173125C1209.2076424879801 487.199457173125 1210.0670174879801 482.761957173125 1211.7857674879801 478.761957173125C1213.5045174879801 474.761957173125 1215.8795174879801 471.308832173125 1218.9107674879801 468.402582173125C1221.9420174879801 465.496332173125 1225.4420174879801 463.246332173125 1229.4107674879801 461.652582173125C1233.3795174879801 460.058832173125 1237.6138924879801 459.261957173125 1242.1138924879801 459.261957173125ZM1242.1138924879801 471.543207173125C1238.3638924879801 471.543207173125 1235.0045174879801 472.449457173125 1232.0357674879801 474.261957173125C1229.0670174879801 476.074457173125 1226.7388924879801 478.511957173125 1225.0513924879801 481.574457173125C1223.3638924879801 484.636957173125 1222.5201424879801 488.136957173125 1222.5201424879801 492.074457173125C1222.5201424879801 495.949457173125 1223.3638924879801 499.433832173125 1225.0513924879801 502.527582173125C1226.7388924879801 505.621332173125 1229.0670174879801 508.058832173125 1232.0357674879801 509.840082173125C1235.0045174879801 511.621332173125 1238.3638924879801 512.511957173125 1242.1138924879801 512.511957173125C1245.8638924879801 512.511957173125 1249.2076424879801 511.621332173125 1252.1451424879801 509.840082173125C1255.0826424879801 508.058832173125 1257.3951424879801 505.621332173125 1259.0826424879801 502.527582173125C1260.7701424879801 499.433832173125 1261.6138924879801 495.949457173125 1261.6138924879801 492.074457173125C1261.6138924879801 488.136957173125 1260.7701424879801 484.636957173125 1259.0826424879801 481.574457173125C1257.3951424879801 478.511957173125 1255.0826424879801 476.074457173125 1252.1451424879801 474.261957173125C1249.2076424879801 472.449457173125 1245.8638924879801 471.543207173125 1242.1138924879801 471.543207173125Z "></path></g></g></g></svg>