<svg xmlns="http://www.w3.org/2000/svg" width="1000" height="1000" id="empty" style=""><g id="logo" transform="matrix(1,0,0,1,0,0)"><g id="icon" transform="matrix(0.5881735111857997,0,0,0.5881735111857999,8.572860938101117e-16,17.45403809132239)"><path fill="#f1eded" d="M357.1933412112274 342.0034029708671C329.9213412112274 342.0034029708671 307.7333412112274 364.1914029708671 307.7333412112274 391.4634029708671C307.7333412112274 394.7774029708671 310.4203412112274 397.46440297086707 313.7333412112274 397.46440297086707C317.0463412112274 397.46440297086707 319.7333412112274 394.7774029708671 319.7333412112274 391.4634029708671C319.7333412112274 370.80840297086706 336.5373412112274 354.0034029708671 357.19234121122736 354.0034029708671C360.50634121122744 354.0034029708671 363.19234121122736 351.3174029708671 363.19234121122736 348.0034029708671C363.19234121122736 344.6894029708671 360.5073412112274 342.0034029708671 357.1933412112274 342.0034029708671Z " transform="matrix(2.6415378791710724,0,0,2.641537665952937,-93.45439259832224,-69.57164930832161)"></path><path fill="#f1eded" d="M357.1933412112274 111.64840297086707L164.1253412112274 250.98740297086707L164.1253412112274 506.1984029708671L550.2643412112275 506.1984029708671L550.2643412112275 250.98740297086707L357.1933412112274 111.64840297086707ZM357.1933412112274 458.9464029708671C319.98534121122736 458.9464029708671 289.7143412112274 428.6744029708671 289.7143412112274 391.46440297086707C289.7143412112274 354.25540297086707 319.98534121122736 323.9834029708671 357.1933412112274 323.9834029708671C394.40234121122745 323.9834029708671 424.6743412112274 354.25540297086707 424.6743412112274 391.46440297086707C424.6743412112274 428.6734029708671 394.40234121122745 458.9464029708671 357.1933412112274 458.9464029708671ZM492.49234121122737 428.9184029708671C492.49234121122737 446.2164029708671 478.42034121122737 460.2884029708671 461.12334121122734 460.2884029708671L406.09434121122734 460.2884029708671C427.6053412112274 444.9594029708671 441.6743412112274 419.8314029708671 441.6743412112274 391.4634029708671C441.6743412112274 344.88040297086707 403.77634121122736 306.98240297086704 357.1933412112274 306.98240297086704C310.6113412112274 306.98240297086704 272.7143412112274 344.88040297086707 272.7143412112274 391.4634029708671C272.7143412112274 419.8314029708671 286.78334121122737 444.9594029708671 308.2943412112274 460.2884029708671L253.2643412112274 460.2884029708671C235.9673412112274 460.2884029708671 221.8953412112274 446.2164029708671 221.8953412112274 428.9184029708671L221.8953412112274 315.82740297086707C221.8953412112274 298.5284029708671 235.9673412112274 284.4564029708671 253.2643412112274 284.4564029708671L314.1043412112274 284.4564029708671L323.9153412112274 263.3824029708671C326.0343412112274 258.83240297086707 331.2143412112274 255.52940297086707 336.2333412112274 255.52940297086707L393.8763412112274 255.52940297086707C398.89234121122735 255.52940297086707 404.0733412112274 258.8314029708671 406.1923412112274 263.38040297086707L416.0053412112274 284.4564029708671L461.12434121122743 284.4564029708671C478.42134121122734 284.4564029708671 492.49334121122735 298.5284029708671 492.49334121122735 315.82740297086707L492.49334121122735 428.9184029708671Z " transform="matrix(2.6415378791710724,0,0,2.641537665952937,-93.45439259832224,-69.57164930832161)"></path><g transform="matrix(5.283075758342145,0,0,5.283075331905874,-93.45439259832224,-69.57164930832161)"></g></g><g id="brand" fill="#f1eded" transform="matrix(0.5881735111857997,0,0,0.5881735111857999,8.572860938101117e-16,693.0305758640864)"><g transform="matrix(1,0,0,1,1.3969838411065363e-7,-0.000001229345780173752)"><path id="text" transform="matrix(1 0 0 1 -9.375 82.5)" d="M376.0424954273129 147.71979399067482L376.0424954273129 159.43854399067482L351.3862454273129 159.43854399067482L351.3862454273129 182.96979399067482L338.3549954273129 182.96979399067482L338.3549954273129 120.15729399067482L381.1987454273129 120.15729399067482L381.1987454273129 131.87604399067482L351.3862454273129 131.87604399067482L351.3862454273129 147.71979399067482L376.0424954273129 147.71979399067482ZM425.6362454273129 118.75104399067482C430.1362454273129 118.75104399067482 434.3549954273129 119.54791899067482 438.2924954273129 121.14166899067482C442.2299954273129 122.73541899067482 445.7143704273129 124.98541899067482 448.7456204273129 127.89166899067482C451.7768704273129 130.79791899067482 454.1518704273129 134.25104399067482 455.8706204273129 138.25104399067482C457.5893704273129 142.25104399067482 458.4487454273129 146.68854399067482 458.4487454273129 151.56354399067482C458.4487454273129 156.43854399067482 457.5893704273129 160.87604399067482 455.8706204273129 164.87604399067482C454.1518704273129 168.87604399067482 451.7768704273129 172.32916899067482 448.7456204273129 175.23541899067482C445.7143704273129 178.14166899067482 442.2299954273129 180.39166899067482 438.2924954273129 181.98541899067482C434.3549954273129 183.57916899067482 430.1362454273129 184.37604399067482 425.6362454273129 184.37604399067482C421.1362454273129 184.37604399067482 416.9018704273129 183.57916899067482 412.9331204273129 181.98541899067482C408.9643704273129 180.39166899067482 405.4643704273129 178.14166899067482 402.4331204273129 175.23541899067482C399.4018704273129 172.32916899067482 397.0268704273129 168.87604399067482 395.3081204273129 164.87604399067482C393.5893704273129 160.87604399067482 392.7299954273129 156.43854399067482 392.7299954273129 151.56354399067482C392.7299954273129 146.68854399067482 393.5893704273129 142.25104399067482 395.3081204273129 138.25104399067482C397.0268704273129 134.25104399067482 399.4018704273129 130.79791899067482 402.4331204273129 127.89166899067482C405.4643704273129 124.98541899067482 408.9643704273129 122.73541899067482 412.9331204273129 121.14166899067482C416.9018704273129 119.54791899067482 421.1362454273129 118.75104399067482 425.6362454273129 118.75104399067482ZM425.6362454273129 131.03229399067482C421.8862454273129 131.03229399067482 418.5268704273129 131.93854399067482 415.5581204273129 133.75104399067482C412.5893704273129 135.56354399067482 410.2612454273129 138.00104399067482 408.5737454273129 141.06354399067482C406.8862454273129 144.12604399067482 406.0424954273129 147.62604399067482 406.0424954273129 151.56354399067482C406.0424954273129 155.43854399067482 406.8862454273129 158.92291899067482 408.5737454273129 162.01666899067482C410.2612454273129 165.11041899067482 412.5893704273129 167.54791899067482 415.5581204273129 169.32916899067482C418.5268704273129 171.11041899067482 421.8862454273129 172.00104399067482 425.6362454273129 172.00104399067482C429.3862454273129 172.00104399067482 432.7299954273129 171.11041899067482 435.6674954273129 169.32916899067482C438.6049954273129 167.54791899067482 440.9174954273129 165.11041899067482 442.6049954273129 162.01666899067482C444.2924954273129 158.92291899067482 445.1362454273129 155.43854399067482 445.1362454273129 151.56354399067482C445.1362454273129 147.62604399067482 444.2924954273129 144.12604399067482 442.6049954273129 141.06354399067482C440.9174954273129 138.00104399067482 438.6049954273129 135.56354399067482 435.6674954273129 133.75104399067482C432.7299954273129 131.93854399067482 429.3862454273129 131.03229399067482 425.6362454273129 131.03229399067482ZM516.4799954273128 120.15729399067482L516.4799954273128 131.87604399067482L496.4174954273129 131.87604399067482L496.4174954273129 182.68854399067482L483.4799954273129 182.68854399067482L483.4799954273129 131.87604399067482L463.4174954273129 131.87604399067482L463.4174954273129 120.15729399067482L516.4799954273128 120.15729399067482ZM555.1987454273128 118.75104399067482C559.6987454273128 118.75104399067482 563.9174954273128 119.54791899067482 567.8549954273128 121.14166899067482C571.7924954273128 122.73541899067482 575.2768704273128 124.98541899067482 578.3081204273128 127.89166899067482C581.3393704273128 130.79791899067482 583.7143704273128 134.25104399067482 585.4331204273128 138.25104399067482C587.1518704273128 142.25104399067482 588.0112454273128 146.68854399067482 588.0112454273128 151.56354399067482C588.0112454273128 156.43854399067482 587.1518704273128 160.87604399067482 585.4331204273128 164.87604399067482C583.7143704273128 168.87604399067482 581.3393704273128 172.32916899067482 578.3081204273128 175.23541899067482C575.2768704273128 178.14166899067482 571.7924954273128 180.39166899067482 567.8549954273128 181.98541899067482C563.9174954273128 183.57916899067482 559.6987454273128 184.37604399067482 555.1987454273128 184.37604399067482C550.6987454273128 184.37604399067482 546.4643704273128 183.57916899067482 542.4956204273128 181.98541899067482C538.5268704273128 180.39166899067482 535.0268704273128 178.14166899067482 531.9956204273128 175.23541899067482C528.9643704273128 172.32916899067482 526.5893704273128 168.87604399067482 524.8706204273128 164.87604399067482C523.1518704273128 160.87604399067482 522.2924954273128 156.43854399067482 522.2924954273128 151.56354399067482C522.2924954273128 146.68854399067482 523.1518704273128 142.25104399067482 524.8706204273128 138.25104399067482C526.5893704273128 134.25104399067482 528.9643704273128 130.79791899067482 531.9956204273128 127.89166899067482C535.0268704273128 124.98541899067482 538.5268704273128 122.73541899067482 542.4956204273128 121.14166899067482C546.4643704273128 119.54791899067482 550.6987454273128 118.75104399067482 555.1987454273128 118.75104399067482ZM555.1987454273128 131.03229399067482C551.4487454273128 131.03229399067482 548.0893704273128 131.93854399067482 545.1206204273128 133.75104399067482C542.1518704273128 135.56354399067482 539.8237454273128 138.00104399067482 538.1362454273128 141.06354399067482C536.4487454273128 144.12604399067482 535.6049954273128 147.62604399067482 535.6049954273128 151.56354399067482C535.6049954273128 155.43854399067482 536.4487454273128 158.92291899067482 538.1362454273128 162.01666899067482C539.8237454273128 165.11041899067482 542.1518704273128 167.54791899067482 545.1206204273128 169.32916899067482C548.0893704273128 171.11041899067482 551.4487454273128 172.00104399067482 555.1987454273128 172.00104399067482C558.9487454273128 172.00104399067482 562.2924954273128 171.11041899067482 565.2299954273128 169.32916899067482C568.1674954273128 167.54791899067482 570.4799954273128 165.11041899067482 572.1674954273128 162.01666899067482C573.8549954273128 158.92291899067482 574.6987454273128 155.43854399067482 574.6987454273128 151.56354399067482C574.6987454273128 147.62604399067482 573.8549954273128 144.12604399067482 572.1674954273128 141.06354399067482C570.4799954273128 138.00104399067482 568.1674954273128 135.56354399067482 565.2299954273128 133.75104399067482C562.2924954273128 131.93854399067482 558.9487454273128 131.03229399067482 555.1987454273128 131.03229399067482ZM631.8862454273128 148.93854399067482L653.2612454273128 148.93854399067482L653.2612454273128 174.53229399067482C650.6362454273128 177.28229399067482 647.3081204273128 179.61041899067482 643.2768704273128 181.51666899067482C639.2456204273128 183.42291899067482 634.6987454273128 184.37604399067482 629.6362454273128 184.37604399067482C625.1362454273128 184.37604399067482 620.8862454273128 183.57916899067482 616.8862454273128 181.98541899067482C612.8862454273128 180.39166899067482 609.3549954273128 178.14166899067482 606.2924954273128 175.23541899067482C603.2299954273128 172.32916899067482 600.8237454273128 168.87604399067482 599.0737454273128 164.87604399067482C597.3237454273128 160.87604399067482 596.4487454273128 156.43854399067482 596.4487454273128 151.56354399067482C596.4487454273128 146.68854399067482 597.3237454273128 142.25104399067482 599.0737454273128 138.25104399067482C600.8237454273128 134.25104399067482 603.2299954273128 130.79791899067482 606.2924954273128 127.89166899067482C609.3549954273128 124.98541899067482 612.8862454273128 122.73541899067482 616.8862454273128 121.14166899067482C620.8862454273128 119.54791899067482 625.1362454273128 118.75104399067482 629.6362454273128 118.75104399067482C633.5737454273128 118.75104399067482 636.9799954273128 119.29791899067482 639.8549954273128 120.39166899067482C642.7299954273128 121.48541899067482 645.2299954273128 122.96979399067482 647.3549954273128 124.84479399067482L647.3549954273128 137.96979399067482C645.8549954273128 136.84479399067482 644.2924954273128 135.75104399067482 642.6674954273128 134.68854399067482C641.0424954273128 133.62604399067482 639.2143704273128 132.75104399067482 637.1831204273128 132.06354399067482C635.1518704273128 131.37604399067482 632.7612454273128 131.03229399067482 630.0112454273128 131.03229399067482C626.2612454273128 131.03229399067482 622.8549954273128 131.93854399067482 619.7924954273128 133.75104399067482C616.7299954273128 135.56354399067482 614.2924954273128 138.00104399067482 612.4799954273128 141.06354399067482C610.6674954273128 144.12604399067482 609.7612454273128 147.62604399067482 609.7612454273128 151.56354399067482C609.7612454273128 155.43854399067482 610.6674954273128 158.92291899067482 612.4799954273128 162.01666899067482C614.2924954273128 165.11041899067482 616.7299954273128 167.54791899067482 619.7924954273128 169.32916899067482C622.8549954273128 171.11041899067482 626.2612454273128 172.00104399067482 630.0112454273128 172.00104399067482C632.8862454273128 172.00104399067482 635.1987454273128 171.65729399067482 636.9487454273128 170.96979399067482C638.6987454273128 170.28229399067482 640.0737454273128 169.53229399067482 641.0737454273128 168.71979399067482L641.1674954273128 158.31354399067482L631.8862454273128 158.31354399067482L631.8862454273128 148.93854399067482ZM693.0112454273128 120.15729399067482C695.9487454273128 120.15729399067482 698.8237454273128 120.56354399067482 701.6362454273128 121.37604399067482C704.4487454273128 122.18854399067482 706.9956204273128 123.43854399067482 709.2768704273128 125.12604399067482C711.5581204273128 126.81354399067482 713.3706204273128 128.92291899067482 714.7143704273128 131.45416899067482C716.0581204273128 133.98541899067482 716.7299954273128 137.00104399067482 716.7299954273128 140.50104399067482C716.7299954273128 144.18854399067482 715.8081204273128 147.36041899067482 713.9643704273128 150.01666899067482C712.1206204273128 152.67291899067482 709.6987454273128 154.73541899067482 706.6987454273128 156.20416899067482C703.6987454273128 157.67291899067482 700.4487454273128 158.53229399067482 696.9487454273128 158.78229399067482L719.5424954273128 182.96979399067482L702.3862454273128 182.96979399067482L680.5424954273128 157.28229399067482L680.5424954273128 182.96979399067482L667.5112454273128 182.96979399067482L667.5112454273128 120.15729399067482L693.0112454273128 120.15729399067482ZM680.5424954273128 132.34479399067482L680.5424954273128 148.18854399067482C682.0424954273128 148.68854399067482 683.7143704273128 149.07916899067482 685.5581204273128 149.36041899067482C687.4018704273128 149.64166899067482 689.2612454273128 149.78229399067482 691.1362454273128 149.78229399067482C694.8862454273128 149.78229399067482 697.8706204273128 149.01666899067482 700.0893704273128 147.48541899067482C702.3081204273128 145.95416899067482 703.4174954273128 143.78229399067482 703.4174954273128 140.96979399067482C703.4174954273128 137.90729399067482 702.2456204273128 135.70416899067482 699.9018704273128 134.36041899067482C697.5581204273128 133.01666899067482 694.6987454273128 132.34479399067482 691.3237454273128 132.34479399067482L680.5424954273128 132.34479399067482ZM757.4174954273128 119.68854399067482L786.6674954273128 182.96979399067482L771.3862454273128 182.96979399067482L766.6049954273128 171.25104399067482L741.7612454273128 171.25104399067482L736.9799954273128 182.96979399067482L721.6987454273128 182.96979399067482L750.9487454273128 119.68854399067482L757.4174954273128 119.68854399067482ZM754.2299954273128 140.96979399067482L746.3549954273128 160.18854399067482L762.1049954273128 160.18854399067482L754.2299954273128 140.96979399067482ZM834.6674954273128 147.71979399067482L834.6674954273128 159.43854399067482L810.0112454273128 159.43854399067482L810.0112454273128 182.96979399067482L796.9799954273128 182.96979399067482L796.9799954273128 120.15729399067482L839.8237454273128 120.15729399067482L839.8237454273128 131.87604399067482L810.0112454273128 131.87604399067482L810.0112454273128 147.71979399067482L834.6674954273128 147.71979399067482ZM890.2612454273128 171.25104399067482L890.2612454273128 182.96979399067482L856.0424954273128 182.96979399067482L856.0424954273128 171.25104399067482L866.6362454273128 171.25104399067482L866.6362454273128 131.87604399067482L856.0424954273128 131.87604399067482L856.0424954273128 120.15729399067482L890.2612454273128 120.15729399067482L890.2612454273128 131.87604399067482L879.6674954273128 131.87604399067482L879.6674954273128 171.25104399067482L890.2612454273128 171.25104399067482ZM889.4174954273128 100.46979399067482L876.5737454273128 113.78229399067482L867.0112454273128 113.78229399067482L876.8549954273128 100.46979399067482L889.4174954273128 100.46979399067482ZM935.8237454273128 119.68854399067482L965.0737454273128 182.96979399067482L949.7924954273128 182.96979399067482L945.0112454273128 171.25104399067482L920.1674954273128 171.25104399067482L915.3862454273128 182.96979399067482L900.1049954273128 182.96979399067482L929.3549954273128 119.68854399067482L935.8237454273128 119.68854399067482ZM932.6362454273128 140.96979399067482L924.7612454273128 160.18854399067482L940.5112454273128 160.18854399067482L932.6362454273128 140.96979399067482ZM1030.7924954273128 119.68854399067482L1060.0424954273128 182.96979399067482L1044.7612454273128 182.96979399067482L1039.9799954273128 171.25104399067482L1015.1362454273128 171.25104399067482L1010.3549954273128 182.96979399067482L995.0737454273128 182.96979399067482L1024.3237454273128 119.68854399067482L1030.7924954273128 119.68854399067482ZM1027.6049954273128 140.96979399067482L1019.7299954273128 160.18854399067482L1035.4799954273128 160.18854399067482L1027.6049954273128 140.96979399067482ZM1160.7299954273128 119.68854399067482L1160.7299954273128 182.96979399067482L1147.6987454273128 182.96979399067482L1147.6987454273128 144.71979399067482L1131.5737454273128 162.34479399067482L1127.8237454273128 162.34479399067482L1111.5112454273128 144.71979399067482L1111.5112454273128 182.96979399067482L1098.4799954273128 182.96979399067482L1098.4799954273128 119.68854399067482L1102.8862454273128 119.68854399067482L1129.6987454273128 147.62604399067482L1156.3237454273128 119.68854399067482L1160.7299954273128 119.68854399067482ZM1206.7612454273128 119.68854399067482L1236.0112454273128 182.96979399067482L1220.7299954273128 182.96979399067482L1215.9487454273128 171.25104399067482L1191.1049954273128 171.25104399067482L1186.3237454273128 182.96979399067482L1171.0424954273128 182.96979399067482L1200.2924954273128 119.68854399067482L1206.7612454273128 119.68854399067482ZM1203.5737454273128 140.96979399067482L1195.6987454273128 160.18854399067482L1211.4487454273128 160.18854399067482L1203.5737454273128 140.96979399067482ZM1301.2612454273128 120.15729399067482L1301.2612454273128 183.43854399067482L1296.5737454273128 183.43854399067482L1259.3549954273128 145.09479399067482L1259.3549954273128 182.96979399067482L1246.3237454273128 182.96979399067482L1246.3237454273128 119.68854399067482L1251.0112454273128 119.68854399067482L1288.2299954273128 158.59479399067482L1288.2299954273128 120.15729399067482L1301.2612454273128 120.15729399067482ZM1347.7612454273128 118.75104399067482C1352.2612454273128 118.75104399067482 1356.4799954273128 119.54791899067482 1360.4174954273128 121.14166899067482C1364.3549954273128 122.73541899067482 1367.8393704273128 124.98541899067482 1370.8706204273128 127.89166899067482C1373.9018704273128 130.79791899067482 1376.2768704273128 134.25104399067482 1377.9956204273128 138.25104399067482C1379.7143704273128 142.25104399067482 1380.5737454273128 146.68854399067482 1380.5737454273128 151.56354399067482C1380.5737454273128 156.43854399067482 1379.7143704273128 160.87604399067482 1377.9956204273128 164.87604399067482C1376.2768704273128 168.87604399067482 1373.9018704273128 172.32916899067482 1370.8706204273128 175.23541899067482C1367.8393704273128 178.14166899067482 1364.3549954273128 180.39166899067482 1360.4174954273128 181.98541899067482C1356.4799954273128 183.57916899067482 1352.2612454273128 184.37604399067482 1347.7612454273128 184.37604399067482C1343.2612454273128 184.37604399067482 1339.0268704273128 183.57916899067482 1335.0581204273128 181.98541899067482C1331.0893704273128 180.39166899067482 1327.5893704273128 178.14166899067482 1324.5581204273128 175.23541899067482C1321.5268704273128 172.32916899067482 1319.1518704273128 168.87604399067482 1317.4331204273128 164.87604399067482C1315.7143704273128 160.87604399067482 1314.8549954273128 156.43854399067482 1314.8549954273128 151.56354399067482C1314.8549954273128 146.68854399067482 1315.7143704273128 142.25104399067482 1317.4331204273128 138.25104399067482C1319.1518704273128 134.25104399067482 1321.5268704273128 130.79791899067482 1324.5581204273128 127.89166899067482C1327.5893704273128 124.98541899067482 1331.0893704273128 122.73541899067482 1335.0581204273128 121.14166899067482C1339.0268704273128 119.54791899067482 1343.2612454273128 118.75104399067482 1347.7612454273128 118.75104399067482ZM1347.7612454273128 131.03229399067482C1344.0112454273128 131.03229399067482 1340.6518704273128 131.93854399067482 1337.6831204273128 133.75104399067482C1334.7143704273128 135.56354399067482 1332.3862454273128 138.00104399067482 1330.6987454273128 141.06354399067482C1329.0112454273128 144.12604399067482 1328.1674954273128 147.62604399067482 1328.1674954273128 151.56354399067482C1328.1674954273128 155.43854399067482 1329.0112454273128 158.92291899067482 1330.6987454273128 162.01666899067482C1332.3862454273128 165.11041899067482 1334.7143704273128 167.54791899067482 1337.6831204273128 169.32916899067482C1340.6518704273128 171.11041899067482 1344.0112454273128 172.00104399067482 1347.7612454273128 172.00104399067482C1351.5112454273128 172.00104399067482 1354.8549954273128 171.11041899067482 1357.7924954273128 169.32916899067482C1360.7299954273128 167.54791899067482 1363.0424954273128 165.11041899067482 1364.7299954273128 162.01666899067482C1366.4174954273128 158.92291899067482 1367.2612454273128 155.43854399067482 1367.2612454273128 151.56354399067482C1367.2612454273128 147.62604399067482 1366.4174954273128 144.12604399067482 1364.7299954273128 141.06354399067482C1363.0424954273128 138.00104399067482 1360.7299954273128 135.56354399067482 1357.7924954273128 133.75104399067482C1354.8549954273128 131.93854399067482 1351.5112454273128 131.03229399067482 1347.7612454273128 131.03229399067482Z "></path></g></g></g></svg>